<svg width="28" height="26" viewBox="0 0 28 26" fill="none" xmlns="http://www.w3.org/2000/svg">
<g id="icon/24/scooter_blue">
<path id="Combined Shape" fill-rule="evenodd" clip-rule="evenodd" d="M22.2728 9.05092C22.9396 9.05092 23.4834 9.51142 23.6607 10.0168C23.7402 10.2448 23.7904 10.4817 23.8101 10.7218C23.815 10.8099 23.7829 10.8962 23.7206 10.9608C23.6586 11.0249 23.5721 11.0617 23.4812 11.0624L22.5837 11.0693C22.647 11.1219 22.7066 11.1787 22.7618 11.2392C23.0772 11.5905 23.2508 12.1269 23.2486 12.5933L22.7909 16.1852C22.7825 16.6893 22.3785 17.2969 21.2315 17.2969L21.2398 18.3463C21.2424 18.7383 20.9185 19.1044 20.516 19.1076H19.9905C19.59 19.1076 19.2642 18.7361 19.2611 18.3463L19.2528 17.2969H8.84461L8.85276 18.3463C8.85532 18.7381 8.53146 19.1042 8.1289 19.1076H7.60344C7.20273 19.1074 6.87721 18.7363 6.87441 18.3463L6.86593 17.2969C5.58723 17.2969 5.28578 16.6972 5.26986 16.1852L4.77524 12.5933C4.77097 12.0029 5.01392 11.5298 5.40297 11.1909L4.52414 11.1983H4.52139C4.43099 11.1983 4.34453 11.1625 4.28214 11.0992C4.21952 11.0357 4.1862 10.9505 4.1897 10.8625C4.20582 10.6223 4.25233 10.3849 4.32822 10.1558C4.49935 9.64408 5.04488 9.05581 5.71816 9.05092C5.93088 9.04936 6.23552 9.05004 6.52278 9.05069H6.52285H6.52293C6.76047 9.05123 6.98611 9.05174 7.13806 9.05092L7.70758 8.1676C8.34959 7.0313 9.1333 6.37565 10.0421 6.36914H17.9581H17.9727C19.0807 6.36914 19.7509 7.27467 20.2116 8.06484L20.8514 9.05092C20.9913 9.05046 21.1921 9.05086 21.4064 9.05128C21.707 9.05187 22.0343 9.05251 22.2582 9.05092H22.2728ZM8.42633 8.37392C8.40025 8.41382 8.37436 8.45345 8.34856 8.49261C8.34454 8.49871 7.26673 10.3918 7.26673 10.3918H20.7472L19.5402 8.38063C18.9023 7.4915 18.4857 7.03959 17.8802 7.03959H17.8707H10.1105C9.29451 7.04536 8.83795 7.74402 8.42633 8.37392ZM4.92776 10.375C4.91919 10.3684 4.91159 10.3626 4.90484 10.3918H6.43178L6.76883 9.72137C6.59873 9.72216 6.40895 9.7217 6.2274 9.72127H6.22736H6.22731C6.04029 9.72081 5.86199 9.72038 5.72295 9.72137C5.34613 9.7239 5.03909 10.1163 4.95931 10.3551C4.94754 10.3902 4.93707 10.3822 4.92776 10.375ZM21.2171 9.72137L21.5535 10.3918H23.0905C23.0806 10.3517 23.069 10.3214 23.0554 10.2861L23.0554 10.286L23.0553 10.286L23.0553 10.2859C23.0484 10.2678 23.0409 10.2484 23.0329 10.2256C22.9503 9.98995 22.6452 9.72137 22.2726 9.72137H22.2631C22.1185 9.72242 21.9309 9.722 21.7353 9.72156C21.5608 9.72116 21.3798 9.72076 21.2171 9.72137ZM8.03882 13.0736H8.04653C8.62428 13.0744 9.09253 13.5223 9.09473 14.0757C9.09675 14.629 8.63186 15.0801 8.05428 15.0849H8.04623C7.46646 15.087 6.9945 14.6383 6.99248 14.083C6.99045 13.5274 7.45888 13.0755 8.03882 13.0736ZM19.9594 13.0736H19.9516C19.3717 13.0755 18.9033 13.5274 18.9053 14.083C18.9073 14.6383 19.3793 15.087 19.9591 15.0849H19.9671C20.5447 15.0801 21.0096 14.629 21.0076 14.0757C21.0054 13.5223 20.5371 13.0744 19.9594 13.0736ZM11.8931 13.744C11.4276 13.744 11.0021 14.0075 10.7947 14.4242L10.717 14.5803C10.6155 14.7842 10.7638 15.0237 10.9916 15.0237H17.0084C17.2362 15.0237 17.3845 14.7842 17.283 14.5803L17.2053 14.4242C16.9979 14.0075 16.5724 13.744 16.1069 13.744H11.8931Z" fill="#71747A"/>
</g>
</svg>
