<svg width="28" height="26" viewBox="0 0 28 26" fill="none" xmlns="http://www.w3.org/2000/svg">
<g id="scooter_hour 1">
<g id="icon/24/scooter_hour">
<g id="Group-9">
<path id="Combined-Shape" fill-rule="evenodd" clip-rule="evenodd" d="M14.1 15.6009C14.9433 15.6009 15.627 16.2666 15.627 17.0878V20.8053C15.627 21.6265 14.9433 22.2923 14.1 22.2923H13.9C13.0567 22.2923 12.373 21.6265 12.373 20.8053V17.0878C12.373 16.2666 13.0567 15.6009 13.9 15.6009H14.1ZM14 3.18457C15.6077 3.18457 16.921 4.33665 17.0055 5.7868L18.6775 5.78679C18.992 5.78679 19.2469 6.0198 19.2469 6.30723C19.2469 6.57071 19.0327 6.78846 18.7548 6.82292L18.6775 6.82767L16.848 6.82766C16.678 7.28123 16.3819 7.68132 15.9979 7.99299C18.0197 8.71932 19.4503 10.5204 19.4503 12.6269V18.5748C19.4503 18.8622 19.1954 19.0953 18.8809 19.0953L16.4396 19.0942L16.4404 17.0878C16.4404 15.9095 15.5022 14.9446 14.3136 14.863L14.15 14.8574H13.85C12.585 14.8574 11.5596 15.856 11.5596 17.0878L11.5593 19.0942L9.11912 19.0953C8.80463 19.0953 8.54968 18.8622 8.54968 18.5748V12.6269C8.54968 10.5204 9.98026 8.71932 12.0019 7.99089C11.6399 7.69817 11.3559 7.32608 11.1822 6.90434L11.1528 6.82767H9.11912C8.80463 6.82767 8.54968 6.59466 8.54968 6.30723C8.54968 6.04375 8.76391 5.826 9.04185 5.79154L9.11912 5.78679L10.9947 5.7864L10.996 5.76151C11.0942 4.32328 12.4016 3.18457 14 3.18457ZM14 10.4708C13.5956 10.4708 13.2679 10.7704 13.2679 11.1399V12.6269L13.2736 12.7108C13.3187 13.0408 13.6268 13.296 14 13.296C14.4043 13.296 14.7321 12.9964 14.7321 12.6269V11.1399L14.7264 11.056C14.6812 10.726 14.3732 10.4708 14 10.4708ZM14 4.22546C12.9667 4.22546 12.129 4.99106 12.129 5.93548C12.129 6.8799 12.9667 7.64551 14 7.64551C15.0333 7.64551 15.871 6.8799 15.871 5.93548C15.871 4.99106 15.0333 4.22546 14 4.22546Z" fill="#71747A"/>
</g>
</g>
</g>
</svg>
